<?xml version="1.0" encoding="UTF-8" standalone="no"?>
<!-- Created with Inkscape (http://www.inkscape.org/) -->

<svg
   xmlns:dc="http://purl.org/dc/elements/1.1/"
   xmlns:cc="http://creativecommons.org/ns#"
   xmlns:rdf="http://www.w3.org/1999/02/22-rdf-syntax-ns#"
   xmlns:svg="http://www.w3.org/2000/svg"
   xmlns="http://www.w3.org/2000/svg"
   xmlns:sodipodi="http://sodipodi.sourceforge.net/DTD/sodipodi-0.dtd"
   xmlns:inkscape="http://www.inkscape.org/namespaces/inkscape"
   width="48"
   height="48"
   viewBox="0 0 12.7 12.7"
   version="1.1"
   id="svg8"
   inkscape:version="0.92.1 r"
   sodipodi:docname="logo.svg">
  <defs
     id="defs2" />
  <sodipodi:namedview
     id="base"
     pagecolor="#000000"
     bordercolor="#666666"
     borderopacity="1.0"
     inkscape:pageopacity="1"
     inkscape:pageshadow="2"
     inkscape:zoom="22.4"
     inkscape:cx="25.935307"
     inkscape:cy="23.716383"
     inkscape:document-units="mm"
     inkscape:current-layer="layer1"
     showgrid="false"
     units="px"
     inkscape:window-width="3200"
     inkscape:window-height="1748"
     inkscape:window-x="0"
     inkscape:window-y="0"
     inkscape:window-maximized="1" />
  <metadata
     id="metadata5">
    <rdf:RDF>
      <cc:Work
         rdf:about="">
        <dc:format>image/svg+xml</dc:format>
        <dc:type
           rdf:resource="http://purl.org/dc/dcmitype/StillImage" />
        <dc:title />
      </cc:Work>
    </rdf:RDF>
  </metadata>
  <g
     inkscape:label="Layer 1"
     inkscape:groupmode="layer"
     id="layer1"
     transform="translate(0,-284.3)">
    <text
       xml:space="preserve"
       style="font-style:normal;font-weight:normal;font-size:3.63802075px;line-height:3.17499995px;font-family:sans-serif;letter-spacing:0px;word-spacing:0px;fill:#ffffff;fill-opacity:1;stroke:none;stroke-width:0.26458332px;stroke-linecap:butt;stroke-linejoin:miter;stroke-opacity:1"
       x="0.56637371"
       y="287.55319"
       id="text4487"><tspan
         sodipodi:role="line"
         x="0.56637371"
         y="287.55319"
         style="font-style:normal;font-variant:normal;font-weight:normal;font-stretch:normal;font-size:2.82222223px;line-height:3.17499995px;font-family:xkcd;-inkscape-font-specification:xkcd;fill:#ffffff;stroke-width:0.26458332px"
         id="tspan4489">Jargon</tspan><tspan
         sodipodi:role="line"
         x="0.56637371"
         y="290.9118"
         style="font-style:normal;font-variant:normal;font-weight:normal;font-stretch:normal;font-size:2.82222223px;line-height:3.17499995px;font-family:xkcd;-inkscape-font-specification:xkcd;fill:#ffffff;stroke-width:0.26458332px"
         id="tspan4491">Profiler</tspan></text>
    <g
       id="g5341"
       transform="matrix(0.00868021,0,0,0.00868021,4.4146927,291.97291)"
       style="fill:#ffffff">
      <g
         id="g5285"
         style="fill:#ffffff">
        <path
           id="path5283"
           d="m 335.842,261.456 h -20.876 c -3.916,-20.76 -12.334,-40.449 -24.619,-57.601 l 14.492,-14.495 c 1.41,-1.411 2.203,-3.325 2.203,-5.324 0,-1.995 -0.793,-3.91 -2.203,-5.319 l -25.292,-25.291 c -2.945,-2.936 -7.704,-2.936 -10.65,0 l -14.917,14.922 c -17.006,-11.628 -36.311,-19.53 -56.495,-23.109 v -21.193 c 0,-4.156 -3.374,-7.529 -7.529,-7.529 h -35.768 c -4.156,0 -7.529,3.374 -7.529,7.529 v 21.193 c -20.345,3.609 -39.795,11.598 -56.896,23.371 L 75.238,154.098 c -2.941,-2.944 -7.705,-2.944 -10.646,0 L 39.303,179.39 c -1.412,1.411 -2.208,3.33 -2.208,5.324 0,1.995 0.796,3.913 2.208,5.325 l 14.223,14.213 C 41.384,221.334 33.068,240.876 29.181,261.456 H 10.195 c -4.16,0 -7.533,3.366 -7.533,7.53 v 35.761 c 0,4.162 3.374,7.533 7.533,7.533 h 18.35 c 3.453,20.739 11.458,40.587 23.423,58.074 l -13.335,13.33 c -2.944,2.946 -2.944,7.71 0,10.65 l 25.291,25.297 c 1.407,1.41 3.331,2.209 5.325,2.209 1.994,0 3.911,-0.799 5.321,-2.209 l 12.917,-12.91 c 17.628,12.618 37.855,21.151 59.172,24.92 v 18.046 c 0,4.159 3.373,7.531 7.529,7.531 h 35.768 c 4.156,0 7.529,-3.372 7.529,-7.531 v -18.046 c 21.142,-3.736 41.24,-12.176 58.772,-24.652 l 13.308,13.311 c 2.824,2.821 7.825,2.821 10.648,0 l 25.294,-25.293 c 2.941,-2.945 2.941,-7.705 0,-10.649 l -13.611,-13.606 c 12.121,-17.595 20.208,-37.573 23.688,-58.476 h 20.258 c 4.152,0 7.528,-3.371 7.528,-7.536 v -35.758 c 0,-4.16 -3.368,-7.526 -7.528,-7.526 z M 173.023,366.245 c -43.837,0 -79.378,-35.541 -79.378,-79.376 0,-43.837 35.536,-79.372 79.378,-79.372 43.838,0 79.376,35.535 79.376,79.372 0,43.835 -35.543,79.376 -79.376,79.376 z m 30.118,-79.376 c 0,16.634 -13.489,30.122 -30.118,30.122 -16.632,0 -30.119,-13.488 -30.119,-30.122 0,-16.636 13.486,-30.119 30.119,-30.119 16.628,0 30.118,13.483 30.118,30.119 z M 450.961,118.12 440.86,113.77 c 2.714,-11.902 2.797,-24.216 0.229,-36.059 l 10.752,-4.273 c 2.205,-0.882 3.283,-3.379 2.415,-5.587 L 446.697,48.86 c -0.879,-2.213 -3.376,-3.289 -5.591,-2.408 L 430.023,50.86 C 423.556,40.668 414.932,31.99 404.787,25.478 l 4.63,-10.758 c 0.459,-1.048 0.472,-2.225 0.043,-3.294 -0.415,-1.057 -1.247,-1.914 -2.292,-2.356 L 388.393,0.98 c -2.176,-0.937 -4.711,0.074 -5.65,2.245 l -4.768,11.08 c -11.489,-2.578 -23.409,-2.696 -34.878,-0.342 l -4.482,-11.25 c -0.881,-2.208 -3.385,-3.283 -5.593,-2.41 l -18.985,7.56 c -2.207,0.878 -3.285,3.384 -2.413,5.587 l 4.474,11.255 c -10.035,6.208 -18.668,14.563 -25.27,24.424 l -10.769,-4.637 c -2.188,-0.941 -4.715,0.065 -5.658,2.246 l -8.087,18.772 c -0.449,1.053 -0.472,2.229 -0.042,3.294 0.419,1.059 1.246,1.91 2.296,2.358 l 10.55,4.55 c -2.835,11.628 -3.124,23.765 -0.842,35.514 l -10.08,4.013 c -2.205,0.878 -3.283,3.379 -2.405,5.587 l 7.55,18.988 c 0.888,2.213 3.381,3.292 5.591,2.411 l 9.752,-3.877 c 6.211,10.288 14.653,19.136 24.7,25.891 l -4.263,9.896 c -0.934,2.187 0.065,4.72 2.25,5.661 l 18.771,8.085 c 1.05,0.449 2.232,0.471 3.286,0.044 1.057,-0.418 1.91,-1.247 2.358,-2.29 l 4.128,-9.581 c 12.027,2.974 24.568,3.231 36.685,0.733 l 3.807,9.576 c 0.881,2.213 3.381,3.289 5.593,2.41 l 18.989,-7.554 c 2.209,-0.876 3.283,-3.385 2.411,-5.587 l -3.812,-9.582 c 10.435,-6.448 19.321,-15.173 26.002,-25.505 l 9.876,4.257 c 2.096,0.897 4.754,-0.15 5.654,-2.246 l 8.087,-18.771 c 0.947,-2.198 -0.065,-4.723 -2.245,-5.665 z m -74.179,18.367 c -23.271,9.256 -49.647,-2.101 -58.9,-25.379 -9.257,-23.275 2.101,-49.645 25.376,-58.911 23.271,-9.25 49.646,2.106 58.915,25.376 9.253,23.278 -2.112,49.653 -25.391,58.914 z m -0.765,-48.509 c 3.515,8.832 -0.799,18.84 -9.629,22.353 -8.834,3.513 -18.836,-0.801 -22.36,-9.633 -3.502,-8.832 0.804,-18.837 9.633,-22.351 8.828,-3.513 18.843,0.802 22.356,9.631 z"
           inkscape:connector-curvature="0"
           style="fill:#ffffff" />
      </g>
      <g
         id="g5287"
         style="fill:#ffffff" />
      <g
         id="g5289"
         style="fill:#ffffff" />
      <g
         id="g5291"
         style="fill:#ffffff" />
      <g
         id="g5293"
         style="fill:#ffffff" />
      <g
         id="g5295"
         style="fill:#ffffff" />
      <g
         id="g5297"
         style="fill:#ffffff" />
      <g
         id="g5299"
         style="fill:#ffffff" />
      <g
         id="g5301"
         style="fill:#ffffff" />
      <g
         id="g5303"
         style="fill:#ffffff" />
      <g
         id="g5305"
         style="fill:#ffffff" />
      <g
         id="g5307"
         style="fill:#ffffff" />
      <g
         id="g5309"
         style="fill:#ffffff" />
      <g
         id="g5311"
         style="fill:#ffffff" />
      <g
         id="g5313"
         style="fill:#ffffff" />
      <g
         id="g5315"
         style="fill:#ffffff" />
    </g>
    <g
       id="g5401"
       transform="matrix(0.00719771,0,0,0.00719771,8.6730281,291.97291)"
       style="fill:#ffffff">
      <g
         id="g5345"
         style="fill:#ffffff">
        <path
           id="path5343"
           d="m 413.695,0 c 0,0 -45.366,44.014 -94.43,61.759 -363.333,131.419 -210.1,387.518 -205.101,388.362 0,0 20.374,-35.48 47.896,-55.717 C 336.704,266.015 372.2,118.233 372.2,118.233 c 0,0 -39.19,177.829 -194.562,288.479 -34.316,24.426 -57.552,84.568 -67.388,144.679 0,0 24.325,-9.828 34.785,-12.49 4.079,-26.618 12.607,-52.106 27.025,-74.875 C 389.211,489.88 460.332,314.903 469.623,253.89 491.552,109.79 413.695,0 413.695,0 Z"
           inkscape:connector-curvature="0"
           style="fill:#ffffff" />
      </g>
      <g
         id="g5347"
         style="fill:#ffffff" />
      <g
         id="g5349"
         style="fill:#ffffff" />
      <g
         id="g5351"
         style="fill:#ffffff" />
      <g
         id="g5353"
         style="fill:#ffffff" />
      <g
         id="g5355"
         style="fill:#ffffff" />
      <g
         id="g5357"
         style="fill:#ffffff" />
      <g
         id="g5359"
         style="fill:#ffffff" />
      <g
         id="g5361"
         style="fill:#ffffff" />
      <g
         id="g5363"
         style="fill:#ffffff" />
      <g
         id="g5365"
         style="fill:#ffffff" />
      <g
         id="g5367"
         style="fill:#ffffff" />
      <g
         id="g5369"
         style="fill:#ffffff" />
      <g
         id="g5371"
         style="fill:#ffffff" />
      <g
         id="g5373"
         style="fill:#ffffff" />
      <g
         id="g5375"
         style="fill:#ffffff" />
    </g>
    <g
       id="g5461"
       transform="matrix(0.00784617,0,0,0.00784617,0.10729437,291.97291)"
       style="fill:#ffffff">
      <g
         id="g5405"
         style="fill:#ffffff">
        <path
           id="path5403"
           d="m 440.636,467.323 c 0,21.226 -17.26,38.497 -38.491,38.497 H 103.687 c -21.246,0 -38.503,-17.271 -38.503,-38.497 0,-2.058 0.381,-4.103 1.114,-6.023 L 169.677,190.374 c 0.036,-0.429 0.098,-0.86 0.151,-1.283 V 33.848 h -12.215 c -9.351,0 -16.917,-7.578 -16.917,-16.925 C 140.697,7.578 148.263,0 157.614,0 h 29.131 c 9.351,0 16.931,7.578 16.931,16.923 v 173.475 c 0,0.976 -0.085,1.939 -0.248,2.899 0,2.066 -0.497,4.844 -1.241,6.762 l -62.27,163.182 H 364.446 L 300.114,200.24 c -0.697,-1.756 -1.088,-3.611 -1.171,-5.488 l -0.142,-1.022 c -0.07,-0.668 -0.106,-1.333 -0.106,-1.998 V 16.923 C 298.695,7.578 306.26,0 315.612,0 h 29.896 c 9.351,0 16.916,7.578 16.916,16.923 0,9.348 -7.565,16.925 -16.916,16.925 H 332.522 V 190.205 L 439.448,461.11 c 0.786,1.987 1.188,4.085 1.188,6.213 z M 220.126,325.535 c 0,-6.998 5.683,-12.69 12.688,-12.69 7.001,0 12.696,5.687 12.696,12.69 0,6.992 -5.695,12.69 -12.696,12.69 -7.005,10e-4 -12.688,-5.698 -12.688,-12.69 z m 8.45,0 c 0,2.329 1.9,4.227 4.232,4.227 2.329,0 4.229,-1.897 4.229,-4.227 0,-2.334 -1.9,-4.231 -4.229,-4.231 -2.332,0 -4.232,1.897 -4.232,4.231 z m 57.115,-12.69 c 0,-6.998 5.692,-12.696 12.696,-12.696 6.999,0 12.685,5.692 12.685,12.696 0,6.987 -5.686,12.69 -12.685,12.69 -7.004,0 -12.696,-5.691 -12.696,-12.69 z m 8.459,0 c 0,2.329 1.897,4.221 4.231,4.221 2.329,0 4.227,-1.892 4.227,-4.221 0,-2.341 -1.897,-4.231 -4.227,-4.231 -2.334,-10e-4 -4.231,1.902 -4.231,4.231 z m -43.725,-42.303 c 0,-9.724 7.912,-17.632 17.64,-17.632 9.712,0 17.626,7.908 17.626,17.632 0,9.711 -7.914,17.632 -17.626,17.632 -9.734,0 -17.64,-7.909 -17.64,-17.632 z m 8.461,0 c 0,5.054 4.116,9.167 9.179,9.167 5.048,0 9.174,-4.113 9.174,-9.167 0,-5.06 -4.126,-9.18 -9.174,-9.18 -5.063,0 -9.179,4.12 -9.179,9.18 z"
           inkscape:connector-curvature="0"
           style="fill:#ffffff" />
      </g>
      <g
         id="g5407"
         style="fill:#ffffff" />
      <g
         id="g5409"
         style="fill:#ffffff" />
      <g
         id="g5411"
         style="fill:#ffffff" />
      <g
         id="g5413"
         style="fill:#ffffff" />
      <g
         id="g5415"
         style="fill:#ffffff" />
      <g
         id="g5417"
         style="fill:#ffffff" />
      <g
         id="g5419"
         style="fill:#ffffff" />
      <g
         id="g5421"
         style="fill:#ffffff" />
      <g
         id="g5423"
         style="fill:#ffffff" />
      <g
         id="g5425"
         style="fill:#ffffff" />
      <g
         id="g5427"
         style="fill:#ffffff" />
      <g
         id="g5429"
         style="fill:#ffffff" />
      <g
         id="g5431"
         style="fill:#ffffff" />
      <g
         id="g5433"
         style="fill:#ffffff" />
      <g
         id="g5435"
         style="fill:#ffffff" />
    </g>
  </g>
</svg>
